<?xml version="1.0" encoding="UTF-8"?>
<svg version="1.1" xmlns="http://www.w3.org/2000/svg" width="2000" height="476">
<path d="M0 0 C1.04604401 0.00215515 2.09208801 0.0043103 3.16983032 0.00653076 C51.97895024 0.16726587 100.18627661 9.9002304 143.375 33.3125 C143.96780762 33.62896484 144.56061523 33.94542969 145.17138672 34.27148438 C183.32780437 54.75731493 216.67605245 89.05219887 229.91479492 130.87304688 C242.54891951 172.80317158 240.35055581 218.17416075 219.57080078 257.16943359 C216.2273192 263.16148777 212.42169736 268.77775176 208.375 274.3125 C207.96588379 274.88242676 207.55676758 275.45235352 207.13525391 276.03955078 C195.40605835 292.24624326 180.91856354 306.10503858 164.375 317.3125 C163.74303711 317.74079102 163.11107422 318.16908203 162.45996094 318.61035156 C132.13041193 338.86632407 98.07965848 351.54259993 62.375 358.3125 C61.38129395 358.50618164 60.38758789 358.69986328 59.36376953 358.89941406 C22.40005363 365.90007296 -19.6575135 366.09477235 -56.625 359.3125 C-57.59034668 359.14234375 -58.55569336 358.9721875 -59.55029297 358.796875 C-97.81525162 351.98231725 -133.19657709 338.93144861 -165.625 317.3125 C-165.625 369.7825 -165.625 422.2525 -165.625 476.3125 C-189.715 476.3125 -213.805 476.3125 -238.625 476.3125 C-238.625 324.5125 -238.625 172.7125 -238.625 16.3125 C-214.535 16.3125 -190.445 16.3125 -165.625 16.3125 C-165.13 30.6675 -165.13 30.6675 -164.625 45.3125 C-162.913125 44.219375 -161.20125 43.12625 -159.4375 42 C-136.20626659 27.56473314 -111.8472829 17.80584318 -85.625 10.3125 C-84.85559082 10.09078125 -84.08618164 9.8690625 -83.29345703 9.640625 C-74.96076985 7.27866627 -66.52592899 5.66563734 -58 4.1875 C-57.1013623 4.02862305 -56.20272461 3.86974609 -55.27685547 3.70605469 C-36.95187007 0.6873732 -18.5399259 -0.06933586 0 0 Z M-48.9375 65.0625 C-49.8022998 65.23168945 -50.66709961 65.40087891 -51.55810547 65.57519531 C-87.72876131 72.93083166 -124.29652643 88.85497673 -146.4375 119.6875 C-163.21910574 145.17854669 -169.23643249 174.27600804 -163.625 204.3125 C-161.41882017 213.70690017 -157.98146642 222.70985745 -153.625 231.3125 C-153.25890625 232.055 -152.8928125 232.7975 -152.515625 233.5625 C-137.26750621 262.80546755 -106.80986418 281.69398644 -76.29296875 291.7890625 C-65.92030978 295.04360987 -55.3152481 297.38090281 -44.625 299.3125 C-43.8098291 299.46493164 -42.9946582 299.61736328 -42.15478516 299.77441406 C-16.57452399 304.38194603 11.68152449 304.12004426 37.375 300.3125 C38.04402344 300.21598145 38.71304688 300.11946289 39.40234375 300.02001953 C78.79684689 294.08159072 119.5633085 277.89687647 144.34692383 245.31298828 C152.53996768 234.09157005 157.903626 221.76407425 161.375 208.3125 C161.6740625 207.22324219 161.973125 206.13398438 162.28125 205.01171875 C168.77668532 177.97747638 163.41714808 149.34607739 149.13183594 125.73510742 C144.87553658 118.97515656 139.93546916 113.03909917 134.375 107.3125 C133.71371094 106.57773438 133.05242187 105.84296875 132.37109375 105.0859375 C105.85208249 76.60441877 60.17753626 63.39512378 22.375 61.3125 C16.30527047 61.13785939 10.23418402 61.12667523 4.16235352 61.12719727 C1.34310504 61.1250236 -1.47574293 61.10685095 -4.29492188 61.08789062 C-19.37058354 61.04046963 -34.12003126 62.15175954 -48.9375 65.0625 Z " fill="#006A32" transform="translate(1255.625,-0.3125)"/>
<path d="M0 0 C1.09706268 0.00182281 2.19412537 0.00364563 3.32443237 0.00552368 C20.21180213 0.0526818 36.80462072 0.54254795 53.5 3.3125 C54.54188477 3.48410645 55.58376953 3.65571289 56.65722656 3.83251953 C87.36189904 9.08451105 117.06317766 18.43921292 144.5 33.3125 C145.09280762 33.62896484 145.68561523 33.94542969 146.29638672 34.27148438 C172.86432974 48.53556922 194.97402723 68.90087365 212.5 93.3125 C213.17804688 94.24449219 213.85609375 95.17648438 214.5546875 96.13671875 C225.90083303 112.78993235 232.34551884 132.78110609 236.5 152.3125 C236.71785156 153.30894531 236.93570312 154.30539063 237.16015625 155.33203125 C244.47100218 193.18596684 235.5628354 236.57674461 213.99707031 268.54003906 C207.21219875 278.04555622 199.72300572 287.01976233 191.5 295.3125 C190.96213867 295.85970703 190.42427734 296.40691406 189.87011719 296.97070312 C180.6288487 306.26963126 170.64104153 313.8288543 159.63769531 320.93164062 C157.81675132 322.10789225 156.01202834 323.30919361 154.2109375 324.515625 C109.43791312 353.57674373 53.15878816 363.58595485 0.5625 363.5 C-0.19112823 363.49906342 -0.94475647 363.49812683 -1.72122192 363.49716187 C-59.46306959 363.34323618 -116.07196979 349.59785348 -164.5 317.3125 C-164.5 369.7825 -164.5 422.2525 -164.5 476.3125 C-188.59 476.3125 -212.68 476.3125 -237.5 476.3125 C-237.5 324.5125 -237.5 172.7125 -237.5 16.3125 C-213.41 16.3125 -189.32 16.3125 -164.5 16.3125 C-164.005 30.6675 -164.005 30.6675 -163.5 45.3125 C-161.19 43.8275 -158.88 42.3425 -156.5 40.8125 C-110.04197043 11.55143075 -54.34000441 -0.18788164 0 0 Z M-38.5 63.3125 C-39.46212402 63.45324951 -40.42424805 63.59399902 -41.41552734 63.73901367 C-72.81298966 68.67497836 -104.52472476 79.86814855 -128.5 101.3125 C-129.05768066 101.80975586 -129.61536133 102.30701172 -130.18994141 102.81933594 C-148.64767717 119.57986941 -159.77502178 140.74544584 -163.25 165.4375 C-163.44178833 166.79657471 -163.44178833 166.79657471 -163.63745117 168.18310547 C-167.12684521 195.33702473 -160.42783951 223.71517556 -143.71875 245.59765625 C-132.24172171 259.64085108 -119.41243947 270.57281889 -103.5 279.3125 C-102.87109863 279.66054688 -102.24219727 280.00859375 -101.59423828 280.3671875 C-83.61946216 290.18251303 -64.56908982 295.63753771 -44.5 299.3125 C-43.64792969 299.47766113 -42.79585937 299.64282227 -41.91796875 299.81298828 C-28.07350437 302.41555381 -14.22749046 302.59718343 -0.1875 302.625 C0.70152008 302.62867584 1.59054016 302.63235168 2.50650024 302.63613892 C42.4363402 302.72228694 82.69748811 294.4336764 116.5 272.3125 C117.34433594 271.7659375 118.18867187 271.219375 119.05859375 270.65625 C142.32319327 254.71881753 158.46761587 229.82080493 164.5 202.3125 C167.40371312 170.97098723 163.81434805 141.62995713 143.5 116.3125 C140.60010351 112.87855259 137.58459868 109.58070575 134.5 106.3125 C133.48679687 105.18521484 133.48679687 105.18521484 132.453125 104.03515625 C121.93907965 92.78987091 108.29722971 85.73072982 94.5 79.3125 C93.41847656 78.79042969 92.33695313 78.26835938 91.22265625 77.73046875 C72.72858005 69.23440223 52.59865104 64.88414905 32.5 62.3125 C31.70819336 62.2086499 30.91638672 62.1047998 30.10058594 61.99780273 C21.1791314 61.00779887 12.19684456 61.12642818 3.23242188 61.12719727 C0.40218831 61.12502091 -2.42764806 61.10684042 -5.2578125 61.08789062 C-16.49317131 61.05270529 -27.38604346 61.66110924 -38.5 63.3125 Z " fill="#006A32" transform="translate(745.5,-0.3125)"/>
<path d="M0 0 C1.6116655 0.00273422 1.6116655 0.00273422 3.25588989 0.00552368 C19.30649256 0.05129522 34.96524363 0.5621719 50.8125 3.3125 C51.85696289 3.48410645 52.90142578 3.65571289 53.97753906 3.83251953 C85.10030199 9.01655819 115.00834663 18.24008564 142.8125 33.3125 C143.40530762 33.62896484 143.99811523 33.94542969 144.60888672 34.27148438 C170.17392962 47.99712135 191.58123115 67.07650095 208.8125 90.3125 C209.49441406 91.22515625 210.17632812 92.1378125 210.87890625 93.078125 C221.02991919 107.4330928 228.28018162 124.36650579 232.8125 141.3125 C233.02132813 142.07916992 233.23015625 142.84583984 233.4453125 143.63574219 C240.11068209 169.42186347 238.99187667 198.83380986 231.8125 224.3125 C231.49023438 225.5603125 231.16796875 226.808125 230.8359375 228.09375 C218.61292102 271.88403514 184.18672589 306.95667157 145.63134766 329.20581055 C129.84177102 337.9287792 112.22220185 345.53329077 94.8125 350.3125 C93.87664062 350.57337402 92.94078125 350.83424805 91.9765625 351.10302734 C64.05862069 358.76936925 36.55231588 363.07767992 7.66552734 363.28173828 C3.93851672 363.31149391 0.2144844 363.38382839 -3.51171875 363.46484375 C-37.14076339 364.03553245 -71.25597602 358.59088739 -103.19580078 347.97021484 C-105.15526175 347.32314597 -107.12176692 346.7023124 -109.08984375 346.08203125 C-127.48367038 340.11117788 -145.38771488 331.47345235 -161.1875 320.3125 C-162.33915524 319.5263342 -163.49152012 318.74120711 -164.64453125 317.95703125 C-181.316412 306.47987858 -195.77790775 293.08658505 -207.96972656 276.92285156 C-208.98426021 275.58125895 -210.01723327 274.25363537 -211.0546875 272.9296875 C-220.22140293 260.6927803 -226.83723782 246.42742594 -231.6875 232 C-232.00130615 231.07171387 -232.3151123 230.14342773 -232.63842773 229.18701172 C-237.39947661 214.25421691 -238.70102868 200.07186396 -238.63354492 184.49584961 C-238.62504023 181.51410619 -238.65390387 178.53428998 -238.68554688 175.55273438 C-238.76256226 154.43568419 -234.45697224 134.39141374 -225.1875 115.3125 C-224.63449219 114.12140625 -224.08148438 112.9303125 -223.51171875 111.703125 C-201.08673533 64.28700027 -155.08055239 34.14996684 -107.26171875 16.46484375 C-72.90312336 4.20939989 -36.29828679 -0.12846895 0 0 Z M-46.1875 64.3125 C-46.97688965 64.45703613 -47.7662793 64.60157227 -48.57958984 64.75048828 C-53.83671641 65.74175687 -59.01548797 66.94760108 -64.1875 68.3125 C-64.98607422 68.52245605 -65.78464844 68.73241211 -66.60742188 68.94873047 C-99.52093767 77.79375608 -133.6410832 95.89046782 -151.3671875 126.33886719 C-165.55296632 152.5214124 -170.41541552 182.64046327 -162.35400391 211.67089844 C-157.9905013 225.98599273 -151.16368259 239.11922314 -141.1875 250.3125 C-140.56359375 251.06660156 -139.9396875 251.82070312 -139.296875 252.59765625 C-112.79014398 284.007055 -67.83551315 298.09016518 -28.24609375 302.01953125 C20.52682514 305.90775598 77.38430129 300.39300499 117.8125 270.3125 C118.658125 269.68859375 119.50375 269.0646875 120.375 268.421875 C140.70415204 252.79383937 157.96465748 230.01336013 162.34521484 204.16967773 C162.84531362 200.04164192 162.97424051 196.03858529 162.98046875 191.88671875 C162.98379715 191.09908646 162.98712555 190.31145416 162.99055481 189.49995422 C162.99559083 187.84185363 162.99796417 186.183743 162.99780273 184.52563477 C162.99998472 182.01756703 163.01816351 179.50994303 163.03710938 177.00195312 C163.14410736 148.14678665 151.44122084 125.46695815 131.625 104.75 C125.55495073 98.79897131 118.88305375 94.00402037 111.8125 89.3125 C110.60207031 88.50039062 110.60207031 88.50039062 109.3671875 87.671875 C76.90232496 67.0844012 37.80066176 61.09010091 0.0625 61.0625 C-0.89292694 61.06149292 -1.84835388 61.06048584 -2.83273315 61.05944824 C-17.49199455 61.06989095 -31.74277593 61.58976686 -46.1875 64.3125 Z " fill="#006A32" transform="translate(238.1875,-0.3125)"/>
<path d="M0 0 C1.60258667 0.00273422 1.60258667 0.00273422 3.23754883 0.00552368 C19.94827764 0.05336925 36.35127777 0.60168105 52.875 3.3125 C54.42405029 3.56193359 54.42405029 3.56193359 56.00439453 3.81640625 C72.67703495 6.60248882 88.80501796 11.11665659 104.875 16.3125 C105.64602051 16.56080566 106.41704102 16.80911133 107.21142578 17.06494141 C126.38989623 23.3874637 145.29466423 32.78938538 161.875 44.3125 C162.51663086 44.7549707 163.15826172 45.19744141 163.81933594 45.65332031 C193.58843617 66.43165442 217.94615785 95.09024845 229.75 129.75 C230.01192139 130.51006348 230.27384277 131.27012695 230.54370117 132.05322266 C235.48133551 147.49818087 237.54769276 162.92366514 237.39648438 179.09423828 C237.37500055 181.81242981 237.39645836 184.52798006 237.421875 187.24609375 C237.47997981 224.6601209 222.27137314 260.65219368 196.96484375 288.03515625 C195.1802702 289.97984107 193.48754813 291.96179781 191.8125 294 C188.51594786 297.86244529 184.75663275 301.0537644 180.875 304.3125 C179.988125 305.08722656 179.10125 305.86195313 178.1875 306.66015625 C171.40654271 312.49430434 164.3989311 317.5122083 156.75976562 322.16064453 C154.83337782 323.33793697 152.92502688 324.54148861 151.015625 325.74609375 C122.55264712 343.41086018 89.62708381 353.34816226 56.875 359.3125 C55.85825195 359.498125 54.84150391 359.68375 53.79394531 359.875 C43.09066447 361.74781595 32.46854407 362.46623377 21.61328125 362.69921875 C19.89083443 362.73750542 19.89083443 362.73750542 18.1335907 362.77656555 C15.71077049 362.82829169 13.28790091 362.87774969 10.86499023 362.92504883 C7.24230472 362.99888302 3.62032043 363.09004063 -0.00195312 363.18164062 C-19.62252623 363.61227014 -39.13831689 362.95569861 -58.4375 359.125 C-59.54375732 358.91141846 -60.65001465 358.69783691 -61.78979492 358.4777832 C-101.06435627 350.66055766 -140.40591832 337.56127821 -172.125 312.3125 C-173.60226562 311.13880859 -173.60226562 311.13880859 -175.109375 309.94140625 C-201.09404584 288.82585556 -220.52733564 263.35954666 -231.125 231.3125 C-231.36581299 230.61415039 -231.60662598 229.91580078 -231.85473633 229.19628906 C-244.49742857 192.24502078 -240.79456762 147.75662069 -223.89941406 112.77490234 C-213.30990246 92.02452167 -198.39786899 71.95671416 -180.125 57.3125 C-178.69414063 56.16007812 -178.69414063 56.16007812 -177.234375 54.984375 C-142.46157282 27.40391432 -101.04123807 12.01086038 -57.6875 4.125 C-56.85597412 3.96999023 -56.02444824 3.81498047 -55.16772461 3.65527344 C-36.91762273 0.51053509 -18.47672081 -0.06589544 0 0 Z M-138.328125 109.2265625 C-159.8399639 134.19900157 -167.20941571 163.24674636 -164.84765625 195.6171875 C-162.93998206 216.29816648 -153.66206643 234.17793036 -141.125 250.3125 C-140.48949219 251.13492188 -139.85398437 251.95734375 -139.19921875 252.8046875 C-113.52073378 283.70684715 -69.38586436 296.6515686 -31.125 301.3125 C-29.96109741 301.45715698 -29.96109741 301.45715698 -28.77368164 301.60473633 C-2.92252419 304.39041055 24.43179746 303.48702832 49.875 298.3125 C50.7825 298.13058105 51.69 297.94866211 52.625 297.76123047 C82.38688535 291.56637375 109.68239769 279.27619599 131.875 258.3125 C132.62523437 257.62671875 133.37546875 256.9409375 134.1484375 256.234375 C151.89142627 239.42522774 163.0502292 215.94558934 163.98364258 191.46289062 C164.62304796 158.68744445 157.29182322 131.66409564 134.45117188 107.38867188 C111.60710939 83.83557932 81.45487509 71.93186246 49.875 65.3125 C49.11993164 65.15265625 48.36486328 64.9928125 47.58691406 64.828125 C32.7500628 61.73405804 18.26687853 61.12592497 3.15966797 61.12719727 C0.27686575 61.12502029 -2.60554682 61.10683332 -5.48828125 61.08789062 C-53.03697814 60.94163712 -104.4598745 73.76621475 -138.328125 109.2265625 Z " fill="#006A32" transform="translate(1763.125,-0.3125)"/>
</svg>
